{"title":"Comedy Night With Kapil - Virat Kohli - S01E96 - 20th July 2014 ","uid":10612631,"size":696055799,"categoryP":"video","categoryS":"tv_shows","magnet":"?xt=urn:btih:277d030253264719e904b2a67383c4bc2bdee68b&amp;dn=Comedy+Night+With+Kapil+-+Virat+Kohli+-+S01E96+-+20th+July+2014+&amp;tr=udp%3A%2F%2Ftracker.openbittorrent.com%3A80&amp;tr=udp%3A%2F%2Fopen.demonii.com%3A1337&amp;tr=udp%3A%2F%2Ftracker.coppersurfer.tk%3A6969&amp;tr=udp%3A%2F%2Fexodus.desync.com%3A6969","seeders":1,"leechers":0,"uploader":"Palash995","files":-1,"time":1406059189,"description":"Comedy Night With Kapil - Virat Kohli - S01E96 - 20th July 2014 {GreatPalash}\n\nScreenshots:-\n &lt;a href=&quot;\nhttp://kvcjm48ngi5svjjttvfvrr8ovs.gcdn.biz/ss/4574305/1&quot; rel=&quot;nofollow&quot; target=&quot;_NEW&quot;&gt;\nhttp://kvcjm48ngi5svjjttvfvrr8ovs.gcdn.biz/ss/4574305/1&lt;/a&gt;\n &lt;a href=&quot;\nhttp://kvcjm48ngi5svjjttvfvrr8ovs.gcdn.biz/ss/4574305/2&quot; rel=&quot;nofollow&quot; target=&quot;_NEW&quot;&gt;\nhttp://kvcjm48ngi5svjjttvfvrr8ovs.gcdn.biz/ss/4574305/2&lt;/a&gt;\n &lt;a href=&quot;\nhttp://kvcjm48ngi5svjjttvfvrr8ovs.gcdn.biz/ss/4574305/3&quot; rel=&quot;nofollow&quot; target=&quot;_NEW&quot;&gt;\nhttp://kvcjm48ngi5svjjttvfvrr8ovs.gcdn.biz/ss/4574305/3&lt;/a&gt;\n &lt;a href=&quot;\nhttp://kvcjm48ngi5svjjttvfvrr8ovs.gcdn.biz/ss/4574305/4&quot; rel=&quot;nofollow&quot; target=&quot;_NEW&quot;&gt;\nhttp://kvcjm48ngi5svjjttvfvrr8ovs.gcdn.biz/ss/4574305/4&lt;/a&gt;\n &lt;a href=&quot;\nhttp://kvcjm48ngi5svjjttvfvrr8ovs.gcdn.biz/ss/4574305/5&quot; rel=&quot;nofollow&quot; target=&quot;_NEW&quot;&gt;\nhttp://kvcjm48ngi5svjjttvfvrr8ovs.gcdn.biz/ss/4574305/5&lt;/a&gt;\n &lt;a href=&quot;\nhttp://kvcjm48ngi5svjjttvfvrr8ovs.gcdn.biz/ss/4574305/6&quot; rel=&quot;nofollow&quot; target=&quot;_NEW&quot;&gt;\nhttp://kvcjm48ngi5svjjttvfvrr8ovs.gcdn.biz/ss/4574305/6&lt;/a&gt;\n &lt;a href=&quot;\nhttp://kvcjm48ngi5svjjttvfvrr8ovs.gcdn.biz/ss/4574305/7&quot; rel=&quot;nofollow&quot; target=&quot;_NEW&quot;&gt;\nhttp://kvcjm48ngi5svjjttvfvrr8ovs.gcdn.biz/ss/4574305/7&lt;/a&gt;\n &lt;a href=&quot;\nhttp://kvcjm48ngi5svjjttvfvrr8ovs.gcdn.biz/ss/4574305/8&quot; rel=&quot;nofollow&quot; target=&quot;_NEW&quot;&gt;\nhttp://kvcjm48ngi5svjjttvfvrr8ovs.gcdn.biz/ss/4574305/8&lt;/a&gt;\n &lt;a href=&quot;\nhttp://kvcjm48ngi5svjjttvfvrr8ovs.gcdn.biz/ss/4574305/9&quot; rel=&quot;nofollow&quot; target=&quot;_NEW&quot;&gt;\nhttp://kvcjm48ngi5svjjttvfvrr8ovs.gcdn.biz/ss/4574305/9&lt;/a&gt;\n\nGeneral\nComplete name : Comedy Night With Kapil - Virat Kohli - 20th July 2014 {GreatPalash}.mkv\nFormat : Flash Video\nFile size : 664 MiB\nDuration : 1h 9mn\nOverall bit rate : 1 336 Kbps\n\nVideo\nFormat : Sorenson Spark\nCodec ID : 2\nDuration : 1h 9mn\nBit rate : 1 172 Kbps\nWidth : 640 pixels\nHeight : 360 pixels\nDisplay aspect ratio : 16:9\nFrame rate mode : Constant\nFrame rate : 25.000 fps\nBit depth : 8 bits\nBits/(Pixel*Frame) : 0.203\nStream size : 582 MiB (88%)\n\nAudio\nFormat : MPEG Audio\nFormat version : Version 1\nFormat profile : Layer 3\nMode : Joint stereo\nMode extension : MS Stereo\nCodec ID : 2\nCodec ID/Hint : MP3\nDuration : 1h 9mn\nBit rate mode : Constant\nBit rate : 128 Kbps\nChannel(s) : 2 channels\nSampling rate : 44.1 KHz\nCompression mode : Lossy\nStream size : 63.6 MiB (10%)","torrent":{"xt":"urn:btih:277d030253264719e904b2a67383c4bc2bdee68b","amp;dn":"Comedy+Night+With+Kapil+-+Virat+Kohli+-+S01E96+-+20th+July+2014+","amp;tr":["udp%3A%2F%2Ftracker.openbittorrent.com%3A80","udp%3A%2F%2Fopen.demonii.com%3A1337","udp%3A%2F%2Ftracker.coppersurfer.tk%3A6969","udp%3A%2F%2Fexodus.desync.com%3A6969"],"infoHash":"277d030253264719e904b2a67383c4bc2bdee68b","infoHashBuffer":{"type":"Buffer","data":[39,125,3,2,83,38,71,25,233,4,178,166,115,131,196,188,43,222,230,139]},"announce":[],"urlList":[]}}